<mxfile host="app.diagrams.net" agent="Mozilla/5.0 (Windows NT 10.0; Win64; x64) AppleWebKit/537.36 (KHTML, like Gecko) Chrome/139.0.0.0 Safari/537.36 Edg/139.0.0.0" version="28.1.1">
  <diagram name="Page-1" id="8MznfiptYvLbAT6ne-r1">
    <mxGraphModel dx="2944" dy="1370" grid="1" gridSize="10" guides="1" tooltips="1" connect="1" arrows="1" fold="1" page="0" pageScale="1" pageWidth="850" pageHeight="1100" math="0" shadow="0">
      <root>
        <mxCell id="0" />
        <mxCell id="1" parent="0" />
        <mxCell id="TenIfx1kViAih2YROzDt-1" value="Intake" style="shape=table;startSize=30;container=1;collapsible=0;childLayout=tableLayout;" parent="1" vertex="1">
          <mxGeometry x="-820" y="-59" width="270" height="70" as="geometry" />
        </mxCell>
        <mxCell id="TenIfx1kViAih2YROzDt-2" value="" style="shape=tableRow;horizontal=0;startSize=0;swimlaneHead=0;swimlaneBody=0;strokeColor=inherit;top=0;left=0;bottom=0;right=0;collapsible=0;dropTarget=0;fillColor=none;points=[[0,0.5],[1,0.5]];portConstraint=eastwest;" parent="TenIfx1kViAih2YROzDt-1" vertex="1">
          <mxGeometry y="30" width="270" height="40" as="geometry" />
        </mxCell>
        <mxCell id="TenIfx1kViAih2YROzDt-3" value="&lt;u&gt;ID&lt;/u&gt;" style="shape=partialRectangle;html=1;whiteSpace=wrap;connectable=0;strokeColor=inherit;overflow=hidden;fillColor=none;top=0;left=0;bottom=0;right=0;pointerEvents=1;" parent="TenIfx1kViAih2YROzDt-2" vertex="1">
          <mxGeometry width="60" height="40" as="geometry">
            <mxRectangle width="60" height="40" as="alternateBounds" />
          </mxGeometry>
        </mxCell>
        <mxCell id="TenIfx1kViAih2YROzDt-4" value="Year" style="shape=partialRectangle;html=1;whiteSpace=wrap;connectable=0;strokeColor=inherit;overflow=hidden;fillColor=none;top=0;left=0;bottom=0;right=0;pointerEvents=1;" parent="TenIfx1kViAih2YROzDt-2" vertex="1">
          <mxGeometry x="60" width="60" height="40" as="geometry">
            <mxRectangle width="60" height="40" as="alternateBounds" />
          </mxGeometry>
        </mxCell>
        <mxCell id="TenIfx1kViAih2YROzDt-5" value="Start_Date" style="shape=partialRectangle;html=1;whiteSpace=wrap;connectable=0;strokeColor=inherit;overflow=hidden;fillColor=none;top=0;left=0;bottom=0;right=0;pointerEvents=1;" parent="TenIfx1kViAih2YROzDt-2" vertex="1">
          <mxGeometry x="120" width="70" height="40" as="geometry">
            <mxRectangle width="70" height="40" as="alternateBounds" />
          </mxGeometry>
        </mxCell>
        <mxCell id="TenIfx1kViAih2YROzDt-6" value="End_Date" style="shape=partialRectangle;html=1;whiteSpace=wrap;connectable=0;strokeColor=inherit;overflow=hidden;fillColor=none;top=0;left=0;bottom=0;right=0;pointerEvents=1;" parent="TenIfx1kViAih2YROzDt-2" vertex="1">
          <mxGeometry x="190" width="80" height="40" as="geometry">
            <mxRectangle width="80" height="40" as="alternateBounds" />
          </mxGeometry>
        </mxCell>
        <mxCell id="TenIfx1kViAih2YROzDt-15" value="Branch" style="shape=table;startSize=30;container=1;collapsible=0;childLayout=tableLayout;" parent="1" vertex="1">
          <mxGeometry x="-820" y="-160" width="120" height="70" as="geometry" />
        </mxCell>
        <mxCell id="TenIfx1kViAih2YROzDt-16" value="" style="shape=tableRow;horizontal=0;startSize=0;swimlaneHead=0;swimlaneBody=0;strokeColor=inherit;top=0;left=0;bottom=0;right=0;collapsible=0;dropTarget=0;fillColor=none;points=[[0,0.5],[1,0.5]];portConstraint=eastwest;" parent="TenIfx1kViAih2YROzDt-15" vertex="1">
          <mxGeometry y="30" width="120" height="40" as="geometry" />
        </mxCell>
        <mxCell id="TenIfx1kViAih2YROzDt-17" value="&lt;u&gt;ID&lt;/u&gt;" style="shape=partialRectangle;html=1;whiteSpace=wrap;connectable=0;strokeColor=inherit;overflow=hidden;fillColor=none;top=0;left=0;bottom=0;right=0;pointerEvents=1;" parent="TenIfx1kViAih2YROzDt-16" vertex="1">
          <mxGeometry width="60" height="40" as="geometry">
            <mxRectangle width="60" height="40" as="alternateBounds" />
          </mxGeometry>
        </mxCell>
        <mxCell id="TenIfx1kViAih2YROzDt-18" value="Name" style="shape=partialRectangle;html=1;whiteSpace=wrap;connectable=0;strokeColor=inherit;overflow=hidden;fillColor=none;top=0;left=0;bottom=0;right=0;pointerEvents=1;" parent="TenIfx1kViAih2YROzDt-16" vertex="1">
          <mxGeometry x="60" width="60" height="40" as="geometry">
            <mxRectangle width="60" height="40" as="alternateBounds" />
          </mxGeometry>
        </mxCell>
        <mxCell id="TenIfx1kViAih2YROzDt-19" value="Track" style="shape=table;startSize=30;container=1;collapsible=0;childLayout=tableLayout;" parent="1" vertex="1">
          <mxGeometry x="-820" y="330" width="230" height="70" as="geometry" />
        </mxCell>
        <mxCell id="TenIfx1kViAih2YROzDt-20" value="" style="shape=tableRow;horizontal=0;startSize=0;swimlaneHead=0;swimlaneBody=0;strokeColor=inherit;top=0;left=0;bottom=0;right=0;collapsible=0;dropTarget=0;fillColor=none;points=[[0,0.5],[1,0.5]];portConstraint=eastwest;" parent="TenIfx1kViAih2YROzDt-19" vertex="1">
          <mxGeometry y="30" width="230" height="40" as="geometry" />
        </mxCell>
        <mxCell id="TenIfx1kViAih2YROzDt-21" value="&lt;u&gt;ID&lt;/u&gt;" style="shape=partialRectangle;html=1;whiteSpace=wrap;connectable=0;strokeColor=inherit;overflow=hidden;fillColor=none;top=0;left=0;bottom=0;right=0;pointerEvents=1;" parent="TenIfx1kViAih2YROzDt-20" vertex="1">
          <mxGeometry width="60" height="40" as="geometry">
            <mxRectangle width="60" height="40" as="alternateBounds" />
          </mxGeometry>
        </mxCell>
        <mxCell id="TenIfx1kViAih2YROzDt-22" value="Name" style="shape=partialRectangle;html=1;whiteSpace=wrap;connectable=0;strokeColor=inherit;overflow=hidden;fillColor=none;top=0;left=0;bottom=0;right=0;pointerEvents=1;" parent="TenIfx1kViAih2YROzDt-20" vertex="1">
          <mxGeometry x="60" width="60" height="40" as="geometry">
            <mxRectangle width="60" height="40" as="alternateBounds" />
          </mxGeometry>
        </mxCell>
        <mxCell id="TenIfx1kViAih2YROzDt-23" value="Department_ID&lt;sub&gt;FK&lt;/sub&gt;" style="shape=partialRectangle;html=1;whiteSpace=wrap;connectable=0;strokeColor=inherit;overflow=hidden;fillColor=none;top=0;left=0;bottom=0;right=0;pointerEvents=1;" parent="TenIfx1kViAih2YROzDt-20" vertex="1">
          <mxGeometry x="120" width="110" height="40" as="geometry">
            <mxRectangle width="110" height="40" as="alternateBounds" />
          </mxGeometry>
        </mxCell>
        <mxCell id="TenIfx1kViAih2YROzDt-28" value="Student" style="shape=table;startSize=30;container=1;collapsible=0;childLayout=tableLayout;" parent="1" vertex="1">
          <mxGeometry x="-820" y="30" width="840" height="70" as="geometry" />
        </mxCell>
        <mxCell id="TenIfx1kViAih2YROzDt-29" value="" style="shape=tableRow;horizontal=0;startSize=0;swimlaneHead=0;swimlaneBody=0;strokeColor=inherit;top=0;left=0;bottom=0;right=0;collapsible=0;dropTarget=0;fillColor=none;points=[[0,0.5],[1,0.5]];portConstraint=eastwest;" parent="TenIfx1kViAih2YROzDt-28" vertex="1">
          <mxGeometry y="30" width="840" height="40" as="geometry" />
        </mxCell>
        <mxCell id="TenIfx1kViAih2YROzDt-30" value="&lt;u&gt;NID&lt;/u&gt;" style="shape=partialRectangle;html=1;whiteSpace=wrap;connectable=0;strokeColor=inherit;overflow=hidden;fillColor=none;top=0;left=0;bottom=0;right=0;pointerEvents=1;" parent="TenIfx1kViAih2YROzDt-29" vertex="1">
          <mxGeometry width="60" height="40" as="geometry">
            <mxRectangle width="60" height="40" as="alternateBounds" />
          </mxGeometry>
        </mxCell>
        <mxCell id="TenIfx1kViAih2YROzDt-31" value="Full_Name" style="shape=partialRectangle;html=1;whiteSpace=wrap;connectable=0;strokeColor=inherit;overflow=hidden;fillColor=none;top=0;left=0;bottom=0;right=0;pointerEvents=1;" parent="TenIfx1kViAih2YROzDt-29" vertex="1">
          <mxGeometry x="60" width="70" height="40" as="geometry">
            <mxRectangle width="70" height="40" as="alternateBounds" />
          </mxGeometry>
        </mxCell>
        <mxCell id="TenIfx1kViAih2YROzDt-32" value="Gender" style="shape=partialRectangle;html=1;whiteSpace=wrap;connectable=0;strokeColor=inherit;overflow=hidden;fillColor=none;top=0;left=0;bottom=0;right=0;pointerEvents=1;" parent="TenIfx1kViAih2YROzDt-29" vertex="1">
          <mxGeometry x="130" width="50" height="40" as="geometry">
            <mxRectangle width="50" height="40" as="alternateBounds" />
          </mxGeometry>
        </mxCell>
        <mxCell id="TenIfx1kViAih2YROzDt-33" value="Birth_Date" style="shape=partialRectangle;html=1;whiteSpace=wrap;connectable=0;strokeColor=inherit;overflow=hidden;fillColor=none;top=0;left=0;bottom=0;right=0;pointerEvents=1;" parent="TenIfx1kViAih2YROzDt-29" vertex="1">
          <mxGeometry x="180" width="60" height="40" as="geometry">
            <mxRectangle width="60" height="40" as="alternateBounds" />
          </mxGeometry>
        </mxCell>
        <mxCell id="TenIfx1kViAih2YROzDt-34" value="Email" style="shape=partialRectangle;html=1;whiteSpace=wrap;connectable=0;strokeColor=inherit;overflow=hidden;fillColor=none;top=0;left=0;bottom=0;right=0;pointerEvents=1;" parent="TenIfx1kViAih2YROzDt-29" vertex="1">
          <mxGeometry x="240" width="60" height="40" as="geometry">
            <mxRectangle width="60" height="40" as="alternateBounds" />
          </mxGeometry>
        </mxCell>
        <mxCell id="TenIfx1kViAih2YROzDt-35" value="Phone" style="shape=partialRectangle;html=1;whiteSpace=wrap;connectable=0;strokeColor=inherit;overflow=hidden;fillColor=none;top=0;left=0;bottom=0;right=0;pointerEvents=1;" parent="TenIfx1kViAih2YROzDt-29" vertex="1">
          <mxGeometry x="300" width="60" height="40" as="geometry">
            <mxRectangle width="60" height="40" as="alternateBounds" />
          </mxGeometry>
        </mxCell>
        <mxCell id="TenIfx1kViAih2YROzDt-36" value="City" style="shape=partialRectangle;html=1;whiteSpace=wrap;connectable=0;strokeColor=inherit;overflow=hidden;fillColor=none;top=0;left=0;bottom=0;right=0;pointerEvents=1;" parent="TenIfx1kViAih2YROzDt-29" vertex="1">
          <mxGeometry x="360" width="60" height="40" as="geometry">
            <mxRectangle width="60" height="40" as="alternateBounds" />
          </mxGeometry>
        </mxCell>
        <mxCell id="TenIfx1kViAih2YROzDt-38" value="College" style="shape=partialRectangle;html=1;whiteSpace=wrap;connectable=0;strokeColor=inherit;overflow=hidden;fillColor=none;top=0;left=0;bottom=0;right=0;pointerEvents=1;" parent="TenIfx1kViAih2YROzDt-29" vertex="1">
          <mxGeometry x="420" width="70" height="40" as="geometry">
            <mxRectangle width="70" height="40" as="alternateBounds" />
          </mxGeometry>
        </mxCell>
        <mxCell id="dDokPPh2LCKlY3VOZpVm-17" value="GPA" style="shape=partialRectangle;html=1;whiteSpace=wrap;connectable=0;strokeColor=inherit;overflow=hidden;fillColor=none;top=0;left=0;bottom=0;right=0;pointerEvents=1;" parent="TenIfx1kViAih2YROzDt-29" vertex="1">
          <mxGeometry x="490" width="70" height="40" as="geometry">
            <mxRectangle width="70" height="40" as="alternateBounds" />
          </mxGeometry>
        </mxCell>
        <mxCell id="dDokPPh2LCKlY3VOZpVm-18" value="Grad_Year" style="shape=partialRectangle;html=1;whiteSpace=wrap;connectable=0;strokeColor=inherit;overflow=hidden;fillColor=none;top=0;left=0;bottom=0;right=0;pointerEvents=1;" parent="TenIfx1kViAih2YROzDt-29" vertex="1">
          <mxGeometry x="560" width="70" height="40" as="geometry">
            <mxRectangle width="70" height="40" as="alternateBounds" />
          </mxGeometry>
        </mxCell>
        <mxCell id="dDokPPh2LCKlY3VOZpVm-19" value="Track_ID&lt;sub&gt;FK&lt;/sub&gt;" style="shape=partialRectangle;html=1;whiteSpace=wrap;connectable=0;strokeColor=inherit;overflow=hidden;fillColor=none;top=0;left=0;bottom=0;right=0;pointerEvents=1;labelBackgroundColor=none;labelBorderColor=none;fontColor=default;" parent="TenIfx1kViAih2YROzDt-29" vertex="1">
          <mxGeometry x="630" width="70" height="40" as="geometry">
            <mxRectangle width="70" height="40" as="alternateBounds" />
          </mxGeometry>
        </mxCell>
        <mxCell id="fgSBksqEQDsR307yNeFl-1" value="Intake_ID&lt;sub&gt;FK&lt;/sub&gt;" style="shape=partialRectangle;html=1;whiteSpace=wrap;connectable=0;strokeColor=inherit;overflow=hidden;fillColor=none;top=0;left=0;bottom=0;right=0;pointerEvents=1;labelBackgroundColor=none;labelBorderColor=none;fontColor=default;" parent="TenIfx1kViAih2YROzDt-29" vertex="1">
          <mxGeometry x="700" width="70" height="40" as="geometry">
            <mxRectangle width="70" height="40" as="alternateBounds" />
          </mxGeometry>
        </mxCell>
        <mxCell id="fgSBksqEQDsR307yNeFl-2" value="Branch_ID&lt;sub&gt;FK&lt;/sub&gt;" style="shape=partialRectangle;html=1;whiteSpace=wrap;connectable=0;strokeColor=inherit;overflow=hidden;fillColor=none;top=0;left=0;bottom=0;right=0;pointerEvents=1;labelBackgroundColor=none;labelBorderColor=none;fontColor=default;" parent="TenIfx1kViAih2YROzDt-29" vertex="1">
          <mxGeometry x="770" width="70" height="40" as="geometry">
            <mxRectangle width="70" height="40" as="alternateBounds" />
          </mxGeometry>
        </mxCell>
        <mxCell id="TenIfx1kViAih2YROzDt-40" value="Instructor" style="shape=table;startSize=30;container=1;collapsible=0;childLayout=tableLayout;" parent="1" vertex="1">
          <mxGeometry x="-820" y="720" width="590" height="70" as="geometry" />
        </mxCell>
        <mxCell id="TenIfx1kViAih2YROzDt-41" value="" style="shape=tableRow;horizontal=0;startSize=0;swimlaneHead=0;swimlaneBody=0;strokeColor=inherit;top=0;left=0;bottom=0;right=0;collapsible=0;dropTarget=0;fillColor=none;points=[[0,0.5],[1,0.5]];portConstraint=eastwest;" parent="TenIfx1kViAih2YROzDt-40" vertex="1">
          <mxGeometry y="30" width="590" height="40" as="geometry" />
        </mxCell>
        <mxCell id="TenIfx1kViAih2YROzDt-42" value="&lt;u&gt;NID&lt;/u&gt;" style="shape=partialRectangle;html=1;whiteSpace=wrap;connectable=0;strokeColor=inherit;overflow=hidden;fillColor=none;top=0;left=0;bottom=0;right=0;pointerEvents=1;" parent="TenIfx1kViAih2YROzDt-41" vertex="1">
          <mxGeometry width="61" height="40" as="geometry">
            <mxRectangle width="61" height="40" as="alternateBounds" />
          </mxGeometry>
        </mxCell>
        <mxCell id="TenIfx1kViAih2YROzDt-43" value="Full_Name" style="shape=partialRectangle;html=1;whiteSpace=wrap;connectable=0;strokeColor=inherit;overflow=hidden;fillColor=none;top=0;left=0;bottom=0;right=0;pointerEvents=1;" parent="TenIfx1kViAih2YROzDt-41" vertex="1">
          <mxGeometry x="61" width="71" height="40" as="geometry">
            <mxRectangle width="71" height="40" as="alternateBounds" />
          </mxGeometry>
        </mxCell>
        <mxCell id="TenIfx1kViAih2YROzDt-44" value="Gender" style="shape=partialRectangle;html=1;whiteSpace=wrap;connectable=0;strokeColor=inherit;overflow=hidden;fillColor=none;top=0;left=0;bottom=0;right=0;pointerEvents=1;" parent="TenIfx1kViAih2YROzDt-41" vertex="1">
          <mxGeometry x="132" width="51" height="40" as="geometry">
            <mxRectangle width="51" height="40" as="alternateBounds" />
          </mxGeometry>
        </mxCell>
        <mxCell id="TenIfx1kViAih2YROzDt-45" value="Birth_Date" style="shape=partialRectangle;html=1;whiteSpace=wrap;connectable=0;strokeColor=inherit;overflow=hidden;fillColor=none;top=0;left=0;bottom=0;right=0;pointerEvents=1;" parent="TenIfx1kViAih2YROzDt-41" vertex="1">
          <mxGeometry x="183" width="61" height="40" as="geometry">
            <mxRectangle width="61" height="40" as="alternateBounds" />
          </mxGeometry>
        </mxCell>
        <mxCell id="TenIfx1kViAih2YROzDt-46" value="Phone" style="shape=partialRectangle;html=1;whiteSpace=wrap;connectable=0;strokeColor=inherit;overflow=hidden;fillColor=none;top=0;left=0;bottom=0;right=0;pointerEvents=1;" parent="TenIfx1kViAih2YROzDt-41" vertex="1">
          <mxGeometry x="244" width="62" height="40" as="geometry">
            <mxRectangle width="62" height="40" as="alternateBounds" />
          </mxGeometry>
        </mxCell>
        <mxCell id="TenIfx1kViAih2YROzDt-47" value="Email" style="shape=partialRectangle;html=1;whiteSpace=wrap;connectable=0;strokeColor=inherit;overflow=hidden;fillColor=none;top=0;left=0;bottom=0;right=0;pointerEvents=1;" parent="TenIfx1kViAih2YROzDt-41" vertex="1">
          <mxGeometry x="306" width="61" height="40" as="geometry">
            <mxRectangle width="61" height="40" as="alternateBounds" />
          </mxGeometry>
        </mxCell>
        <mxCell id="TenIfx1kViAih2YROzDt-48" value="City" style="shape=partialRectangle;html=1;whiteSpace=wrap;connectable=0;strokeColor=inherit;overflow=hidden;fillColor=none;top=0;left=0;bottom=0;right=0;pointerEvents=1;" parent="TenIfx1kViAih2YROzDt-41" vertex="1">
          <mxGeometry x="367" width="61" height="40" as="geometry">
            <mxRectangle width="61" height="40" as="alternateBounds" />
          </mxGeometry>
        </mxCell>
        <mxCell id="TenIfx1kViAih2YROzDt-49" value="Salary" style="shape=partialRectangle;html=1;whiteSpace=wrap;connectable=0;strokeColor=inherit;overflow=hidden;fillColor=none;top=0;left=0;bottom=0;right=0;pointerEvents=1;" parent="TenIfx1kViAih2YROzDt-41" vertex="1">
          <mxGeometry x="428" width="61" height="40" as="geometry">
            <mxRectangle width="61" height="40" as="alternateBounds" />
          </mxGeometry>
        </mxCell>
        <mxCell id="TenIfx1kViAih2YROzDt-50" value="Department_ID&lt;sub&gt;FK&lt;/sub&gt;" style="shape=partialRectangle;html=1;whiteSpace=wrap;connectable=0;strokeColor=inherit;overflow=hidden;fillColor=none;top=0;left=0;bottom=0;right=0;pointerEvents=1;" parent="TenIfx1kViAih2YROzDt-41" vertex="1">
          <mxGeometry x="489" width="101" height="40" as="geometry">
            <mxRectangle width="101" height="40" as="alternateBounds" />
          </mxGeometry>
        </mxCell>
        <mxCell id="TenIfx1kViAih2YROzDt-56" value="Track_Courses" style="shape=table;startSize=30;container=1;collapsible=0;childLayout=tableLayout;" parent="1" vertex="1">
          <mxGeometry x="-660" y="440" width="150" height="70" as="geometry" />
        </mxCell>
        <mxCell id="TenIfx1kViAih2YROzDt-57" value="" style="shape=tableRow;horizontal=0;startSize=0;swimlaneHead=0;swimlaneBody=0;strokeColor=inherit;top=0;left=0;bottom=0;right=0;collapsible=0;dropTarget=0;fillColor=none;points=[[0,0.5],[1,0.5]];portConstraint=eastwest;" parent="TenIfx1kViAih2YROzDt-56" vertex="1">
          <mxGeometry y="30" width="150" height="40" as="geometry" />
        </mxCell>
        <mxCell id="TenIfx1kViAih2YROzDt-58" value="&lt;u&gt;Track_ID&lt;sub&gt;FK&lt;/sub&gt;&lt;/u&gt;" style="shape=partialRectangle;html=1;whiteSpace=wrap;connectable=0;strokeColor=inherit;overflow=hidden;fillColor=none;top=0;left=0;bottom=0;right=0;pointerEvents=1;" parent="TenIfx1kViAih2YROzDt-57" vertex="1">
          <mxGeometry width="70" height="40" as="geometry">
            <mxRectangle width="70" height="40" as="alternateBounds" />
          </mxGeometry>
        </mxCell>
        <mxCell id="TenIfx1kViAih2YROzDt-59" value="&lt;u&gt;Course_ID&lt;sub&gt;FK&lt;/sub&gt;&lt;/u&gt;" style="shape=partialRectangle;html=1;whiteSpace=wrap;connectable=0;strokeColor=inherit;overflow=hidden;fillColor=none;top=0;left=0;bottom=0;right=0;pointerEvents=1;" parent="TenIfx1kViAih2YROzDt-57" vertex="1">
          <mxGeometry x="70" width="80" height="40" as="geometry">
            <mxRectangle width="80" height="40" as="alternateBounds" />
          </mxGeometry>
        </mxCell>
        <mxCell id="TenIfx1kViAih2YROzDt-60" value="Department" style="shape=table;startSize=30;container=1;collapsible=0;childLayout=tableLayout;" parent="1" vertex="1">
          <mxGeometry x="-820" y="440" width="120" height="70" as="geometry" />
        </mxCell>
        <mxCell id="TenIfx1kViAih2YROzDt-61" value="" style="shape=tableRow;horizontal=0;startSize=0;swimlaneHead=0;swimlaneBody=0;strokeColor=inherit;top=0;left=0;bottom=0;right=0;collapsible=0;dropTarget=0;fillColor=none;points=[[0,0.5],[1,0.5]];portConstraint=eastwest;" parent="TenIfx1kViAih2YROzDt-60" vertex="1">
          <mxGeometry y="30" width="120" height="40" as="geometry" />
        </mxCell>
        <mxCell id="TenIfx1kViAih2YROzDt-62" value="&lt;u&gt;ID&lt;/u&gt;" style="shape=partialRectangle;html=1;whiteSpace=wrap;connectable=0;strokeColor=inherit;overflow=hidden;fillColor=none;top=0;left=0;bottom=0;right=0;pointerEvents=1;" parent="TenIfx1kViAih2YROzDt-61" vertex="1">
          <mxGeometry width="60" height="40" as="geometry">
            <mxRectangle width="60" height="40" as="alternateBounds" />
          </mxGeometry>
        </mxCell>
        <mxCell id="TenIfx1kViAih2YROzDt-63" value="Name" style="shape=partialRectangle;html=1;whiteSpace=wrap;connectable=0;strokeColor=inherit;overflow=hidden;fillColor=none;top=0;left=0;bottom=0;right=0;pointerEvents=1;" parent="TenIfx1kViAih2YROzDt-61" vertex="1">
          <mxGeometry x="60" width="60" height="40" as="geometry">
            <mxRectangle width="60" height="40" as="alternateBounds" />
          </mxGeometry>
        </mxCell>
        <mxCell id="TenIfx1kViAih2YROzDt-75" value="Course" style="shape=table;startSize=30;container=1;collapsible=0;childLayout=tableLayout;fontStyle=0;fontColor=default;" parent="1" vertex="1">
          <mxGeometry x="-820" y="570" width="336" height="80" as="geometry" />
        </mxCell>
        <mxCell id="TenIfx1kViAih2YROzDt-76" value="" style="shape=tableRow;horizontal=0;startSize=0;swimlaneHead=0;swimlaneBody=0;strokeColor=inherit;top=0;left=0;bottom=0;right=0;collapsible=0;dropTarget=0;fillColor=none;points=[[0,0.5],[1,0.5]];portConstraint=eastwest;" parent="TenIfx1kViAih2YROzDt-75" vertex="1">
          <mxGeometry y="30" width="336" height="50" as="geometry" />
        </mxCell>
        <mxCell id="TenIfx1kViAih2YROzDt-77" value="&lt;span style=&quot;font-size: 13px;&quot;&gt;&lt;u&gt;ID&lt;/u&gt;&lt;/span&gt;" style="shape=partialRectangle;html=1;whiteSpace=wrap;connectable=0;strokeColor=inherit;overflow=hidden;fillColor=none;top=0;left=0;bottom=0;right=0;pointerEvents=1;" parent="TenIfx1kViAih2YROzDt-76" vertex="1">
          <mxGeometry width="39" height="50" as="geometry">
            <mxRectangle width="39" height="50" as="alternateBounds" />
          </mxGeometry>
        </mxCell>
        <mxCell id="TenIfx1kViAih2YROzDt-78" value="&lt;font style=&quot;font-size: 13px;&quot;&gt;Name&lt;/font&gt;" style="shape=partialRectangle;html=1;whiteSpace=wrap;connectable=0;strokeColor=inherit;overflow=hidden;fillColor=none;top=0;left=0;bottom=0;right=0;pointerEvents=1;" parent="TenIfx1kViAih2YROzDt-76" vertex="1">
          <mxGeometry x="39" width="68" height="50" as="geometry">
            <mxRectangle width="68" height="50" as="alternateBounds" />
          </mxGeometry>
        </mxCell>
        <mxCell id="TenIfx1kViAih2YROzDt-79" value="Description" style="shape=partialRectangle;html=1;connectable=0;strokeColor=inherit;overflow=hidden;fillColor=none;top=0;left=0;bottom=0;right=0;pointerEvents=1;fontColor=default;whiteSpace=wrap;textShadow=0;" parent="TenIfx1kViAih2YROzDt-76" vertex="1">
          <mxGeometry x="107" width="66" height="50" as="geometry">
            <mxRectangle width="66" height="50" as="alternateBounds" />
          </mxGeometry>
        </mxCell>
        <mxCell id="TenIfx1kViAih2YROzDt-80" value="&lt;span style=&quot;font-size: 13px;&quot;&gt;Max_Degree&lt;/span&gt;" style="shape=partialRectangle;html=1;whiteSpace=wrap;connectable=0;strokeColor=inherit;overflow=hidden;fillColor=none;top=0;left=0;bottom=0;right=0;pointerEvents=1;" parent="TenIfx1kViAih2YROzDt-76" vertex="1">
          <mxGeometry x="173" width="92" height="50" as="geometry">
            <mxRectangle width="92" height="50" as="alternateBounds" />
          </mxGeometry>
        </mxCell>
        <mxCell id="TenIfx1kViAih2YROzDt-81" value="Min_Degree" style="shape=partialRectangle;html=1;whiteSpace=wrap;connectable=0;strokeColor=inherit;overflow=hidden;fillColor=none;top=0;left=0;bottom=0;right=0;pointerEvents=1;" parent="TenIfx1kViAih2YROzDt-76" vertex="1">
          <mxGeometry x="265" width="71" height="50" as="geometry">
            <mxRectangle width="71" height="50" as="alternateBounds" />
          </mxGeometry>
        </mxCell>
        <mxCell id="TenIfx1kViAih2YROzDt-102" value="Exam" style="shape=table;startSize=30;container=1;collapsible=0;childLayout=tableLayout;" parent="1" vertex="1">
          <mxGeometry x="-820" y="1020" width="960" height="70" as="geometry" />
        </mxCell>
        <mxCell id="TenIfx1kViAih2YROzDt-103" value="" style="shape=tableRow;horizontal=0;startSize=0;swimlaneHead=0;swimlaneBody=0;strokeColor=inherit;top=0;left=0;bottom=0;right=0;collapsible=0;dropTarget=0;fillColor=none;points=[[0,0.5],[1,0.5]];portConstraint=eastwest;" parent="TenIfx1kViAih2YROzDt-102" vertex="1">
          <mxGeometry y="30" width="960" height="40" as="geometry" />
        </mxCell>
        <mxCell id="TenIfx1kViAih2YROzDt-104" value="&lt;u&gt;ID&lt;/u&gt;" style="shape=partialRectangle;html=1;whiteSpace=wrap;connectable=0;strokeColor=inherit;overflow=hidden;fillColor=none;top=0;left=0;bottom=0;right=0;pointerEvents=1;" parent="TenIfx1kViAih2YROzDt-103" vertex="1">
          <mxGeometry width="60" height="40" as="geometry">
            <mxRectangle width="60" height="40" as="alternateBounds" />
          </mxGeometry>
        </mxCell>
        <mxCell id="TenIfx1kViAih2YROzDt-105" value="No_Question" style="shape=partialRectangle;html=1;whiteSpace=wrap;connectable=0;strokeColor=inherit;overflow=hidden;fillColor=none;top=0;left=0;bottom=0;right=0;pointerEvents=1;" parent="TenIfx1kViAih2YROzDt-103" vertex="1">
          <mxGeometry x="60" width="80" height="40" as="geometry">
            <mxRectangle width="80" height="40" as="alternateBounds" />
          </mxGeometry>
        </mxCell>
        <mxCell id="TenIfx1kViAih2YROzDt-106" value="Type" style="shape=partialRectangle;html=1;whiteSpace=wrap;connectable=0;strokeColor=inherit;overflow=hidden;fillColor=none;top=0;left=0;bottom=0;right=0;pointerEvents=1;" parent="TenIfx1kViAih2YROzDt-103" vertex="1">
          <mxGeometry x="140" width="50" height="40" as="geometry">
            <mxRectangle width="50" height="40" as="alternateBounds" />
          </mxGeometry>
        </mxCell>
        <mxCell id="TenIfx1kViAih2YROzDt-107" value="Date" style="shape=partialRectangle;html=1;whiteSpace=wrap;connectable=0;strokeColor=inherit;overflow=hidden;fillColor=none;top=0;left=0;bottom=0;right=0;pointerEvents=1;" parent="TenIfx1kViAih2YROzDt-103" vertex="1">
          <mxGeometry x="190" width="50" height="40" as="geometry">
            <mxRectangle width="50" height="40" as="alternateBounds" />
          </mxGeometry>
        </mxCell>
        <mxCell id="TenIfx1kViAih2YROzDt-108" value="Start_Time" style="shape=partialRectangle;html=1;whiteSpace=wrap;connectable=0;strokeColor=inherit;overflow=hidden;fillColor=none;top=0;left=0;bottom=0;right=0;pointerEvents=1;" parent="TenIfx1kViAih2YROzDt-103" vertex="1">
          <mxGeometry x="240" width="70" height="40" as="geometry">
            <mxRectangle width="70" height="40" as="alternateBounds" />
          </mxGeometry>
        </mxCell>
        <mxCell id="TenIfx1kViAih2YROzDt-109" value="End_Time" style="shape=partialRectangle;html=1;whiteSpace=wrap;connectable=0;strokeColor=inherit;overflow=hidden;fillColor=none;top=0;left=0;bottom=0;right=0;pointerEvents=1;" parent="TenIfx1kViAih2YROzDt-103" vertex="1">
          <mxGeometry x="310" width="60" height="40" as="geometry">
            <mxRectangle width="60" height="40" as="alternateBounds" />
          </mxGeometry>
        </mxCell>
        <mxCell id="TenIfx1kViAih2YROzDt-110" value="Total_Time" style="shape=partialRectangle;html=1;whiteSpace=wrap;connectable=0;strokeColor=inherit;overflow=hidden;fillColor=none;top=0;left=0;bottom=0;right=0;pointerEvents=1;" parent="TenIfx1kViAih2YROzDt-103" vertex="1">
          <mxGeometry x="370" width="70" height="40" as="geometry">
            <mxRectangle width="70" height="40" as="alternateBounds" />
          </mxGeometry>
        </mxCell>
        <mxCell id="TenIfx1kViAih2YROzDt-112" value="Total_Degree" style="shape=partialRectangle;html=1;whiteSpace=wrap;connectable=0;strokeColor=inherit;overflow=hidden;fillColor=none;top=0;left=0;bottom=0;right=0;pointerEvents=1;" parent="TenIfx1kViAih2YROzDt-103" vertex="1">
          <mxGeometry x="440" width="90" height="40" as="geometry">
            <mxRectangle width="90" height="40" as="alternateBounds" />
          </mxGeometry>
        </mxCell>
        <mxCell id="TenIfx1kViAih2YROzDt-113" value="Ins_NID&lt;sub&gt;FK&lt;/sub&gt;" style="shape=partialRectangle;html=1;whiteSpace=wrap;connectable=0;strokeColor=inherit;overflow=hidden;fillColor=none;top=0;left=0;bottom=0;right=0;pointerEvents=1;" parent="TenIfx1kViAih2YROzDt-103" vertex="1">
          <mxGeometry x="530" width="70" height="40" as="geometry">
            <mxRectangle width="70" height="40" as="alternateBounds" />
          </mxGeometry>
        </mxCell>
        <mxCell id="TenIfx1kViAih2YROzDt-114" value="Course_ID&lt;sub&gt;FK&lt;/sub&gt;" style="shape=partialRectangle;html=1;whiteSpace=wrap;connectable=0;strokeColor=inherit;overflow=hidden;fillColor=none;top=0;left=0;bottom=0;right=0;pointerEvents=1;" parent="TenIfx1kViAih2YROzDt-103" vertex="1">
          <mxGeometry x="600" width="90" height="40" as="geometry">
            <mxRectangle width="90" height="40" as="alternateBounds" />
          </mxGeometry>
        </mxCell>
        <mxCell id="CGkcJZrvuBVAxDMQJCgX-3" value="Intake_ID&lt;sub style=&quot;&quot;&gt;&lt;font style=&quot;font-size: 10px;&quot;&gt;FK&lt;/font&gt;&lt;/sub&gt;" style="shape=partialRectangle;html=1;whiteSpace=wrap;connectable=0;strokeColor=inherit;overflow=hidden;fillColor=none;top=0;left=0;bottom=0;right=0;pointerEvents=1;" vertex="1" parent="TenIfx1kViAih2YROzDt-103">
          <mxGeometry x="690" width="90" height="40" as="geometry">
            <mxRectangle width="90" height="40" as="alternateBounds" />
          </mxGeometry>
        </mxCell>
        <mxCell id="CGkcJZrvuBVAxDMQJCgX-2" value="Branch_ID&lt;sub&gt;FK&lt;/sub&gt;" style="shape=partialRectangle;html=1;whiteSpace=wrap;connectable=0;strokeColor=inherit;overflow=hidden;fillColor=none;top=0;left=0;bottom=0;right=0;pointerEvents=1;" vertex="1" parent="TenIfx1kViAih2YROzDt-103">
          <mxGeometry x="780" width="90" height="40" as="geometry">
            <mxRectangle width="90" height="40" as="alternateBounds" />
          </mxGeometry>
        </mxCell>
        <mxCell id="CGkcJZrvuBVAxDMQJCgX-1" value="Track_ID&lt;sub&gt;FK&lt;/sub&gt;" style="shape=partialRectangle;html=1;whiteSpace=wrap;connectable=0;strokeColor=inherit;overflow=hidden;fillColor=none;top=0;left=0;bottom=0;right=0;pointerEvents=1;" vertex="1" parent="TenIfx1kViAih2YROzDt-103">
          <mxGeometry x="870" width="90" height="40" as="geometry">
            <mxRectangle width="90" height="40" as="alternateBounds" />
          </mxGeometry>
        </mxCell>
        <mxCell id="TenIfx1kViAih2YROzDt-115" value="Exam_Questions" style="shape=table;startSize=30;container=1;collapsible=0;childLayout=tableLayout;" parent="1" vertex="1">
          <mxGeometry x="290" y="880" width="140" height="70" as="geometry" />
        </mxCell>
        <mxCell id="TenIfx1kViAih2YROzDt-116" value="" style="shape=tableRow;horizontal=0;startSize=0;swimlaneHead=0;swimlaneBody=0;strokeColor=inherit;top=0;left=0;bottom=0;right=0;collapsible=0;dropTarget=0;fillColor=none;points=[[0,0.5],[1,0.5]];portConstraint=eastwest;" parent="TenIfx1kViAih2YROzDt-115" vertex="1">
          <mxGeometry y="30" width="140" height="40" as="geometry" />
        </mxCell>
        <mxCell id="TenIfx1kViAih2YROzDt-117" value="&lt;u&gt;Exam_ID&lt;/u&gt;" style="shape=partialRectangle;html=1;whiteSpace=wrap;connectable=0;strokeColor=inherit;overflow=hidden;fillColor=none;top=0;left=0;bottom=0;right=0;pointerEvents=1;" parent="TenIfx1kViAih2YROzDt-116" vertex="1">
          <mxGeometry width="60" height="40" as="geometry">
            <mxRectangle width="60" height="40" as="alternateBounds" />
          </mxGeometry>
        </mxCell>
        <mxCell id="TenIfx1kViAih2YROzDt-118" value="&lt;u&gt;Question_ID&lt;/u&gt;" style="shape=partialRectangle;html=1;whiteSpace=wrap;connectable=0;strokeColor=inherit;overflow=hidden;fillColor=none;top=0;left=0;bottom=0;right=0;pointerEvents=1;" parent="TenIfx1kViAih2YROzDt-116" vertex="1">
          <mxGeometry x="60" width="80" height="40" as="geometry">
            <mxRectangle width="80" height="40" as="alternateBounds" />
          </mxGeometry>
        </mxCell>
        <mxCell id="TenIfx1kViAih2YROzDt-119" value="Questions" style="shape=table;startSize=30;container=1;collapsible=0;childLayout=tableLayout;" parent="1" vertex="1">
          <mxGeometry x="-820" y="880" width="480" height="70" as="geometry" />
        </mxCell>
        <mxCell id="TenIfx1kViAih2YROzDt-120" value="" style="shape=tableRow;horizontal=0;startSize=0;swimlaneHead=0;swimlaneBody=0;strokeColor=inherit;top=0;left=0;bottom=0;right=0;collapsible=0;dropTarget=0;fillColor=none;points=[[0,0.5],[1,0.5]];portConstraint=eastwest;" parent="TenIfx1kViAih2YROzDt-119" vertex="1">
          <mxGeometry y="30" width="480" height="40" as="geometry" />
        </mxCell>
        <mxCell id="TenIfx1kViAih2YROzDt-121" value="&lt;u&gt;ID&lt;/u&gt;" style="shape=partialRectangle;html=1;whiteSpace=wrap;connectable=0;strokeColor=inherit;overflow=hidden;fillColor=none;top=0;left=0;bottom=0;right=0;pointerEvents=1;" parent="TenIfx1kViAih2YROzDt-120" vertex="1">
          <mxGeometry width="60" height="40" as="geometry">
            <mxRectangle width="60" height="40" as="alternateBounds" />
          </mxGeometry>
        </mxCell>
        <mxCell id="TenIfx1kViAih2YROzDt-122" value="Head" style="shape=partialRectangle;html=1;whiteSpace=wrap;connectable=0;strokeColor=inherit;overflow=hidden;fillColor=none;top=0;left=0;bottom=0;right=0;pointerEvents=1;" parent="TenIfx1kViAih2YROzDt-120" vertex="1">
          <mxGeometry x="60" width="60" height="40" as="geometry">
            <mxRectangle width="60" height="40" as="alternateBounds" />
          </mxGeometry>
        </mxCell>
        <mxCell id="TenIfx1kViAih2YROzDt-123" value="Options" style="shape=partialRectangle;html=1;whiteSpace=wrap;connectable=0;strokeColor=inherit;overflow=hidden;fillColor=none;top=0;left=0;bottom=0;right=0;pointerEvents=1;" parent="TenIfx1kViAih2YROzDt-120" vertex="1">
          <mxGeometry x="120" width="60" height="40" as="geometry">
            <mxRectangle width="60" height="40" as="alternateBounds" />
          </mxGeometry>
        </mxCell>
        <mxCell id="TenIfx1kViAih2YROzDt-124" value="Type" style="shape=partialRectangle;html=1;whiteSpace=wrap;connectable=0;strokeColor=inherit;overflow=hidden;fillColor=none;top=0;left=0;bottom=0;right=0;pointerEvents=1;" parent="TenIfx1kViAih2YROzDt-120" vertex="1">
          <mxGeometry x="180" width="60" height="40" as="geometry">
            <mxRectangle width="60" height="40" as="alternateBounds" />
          </mxGeometry>
        </mxCell>
        <mxCell id="TenIfx1kViAih2YROzDt-125" value="Correct_Answer" style="shape=partialRectangle;html=1;whiteSpace=wrap;connectable=0;strokeColor=inherit;overflow=hidden;fillColor=none;top=0;left=0;bottom=0;right=0;pointerEvents=1;" parent="TenIfx1kViAih2YROzDt-120" vertex="1">
          <mxGeometry x="240" width="100" height="40" as="geometry">
            <mxRectangle width="100" height="40" as="alternateBounds" />
          </mxGeometry>
        </mxCell>
        <mxCell id="TenIfx1kViAih2YROzDt-126" value="Degree" style="shape=partialRectangle;html=1;whiteSpace=wrap;connectable=0;strokeColor=inherit;overflow=hidden;fillColor=none;top=0;left=0;bottom=0;right=0;pointerEvents=1;" parent="TenIfx1kViAih2YROzDt-120" vertex="1">
          <mxGeometry x="340" width="60" height="40" as="geometry">
            <mxRectangle width="60" height="40" as="alternateBounds" />
          </mxGeometry>
        </mxCell>
        <mxCell id="TenIfx1kViAih2YROzDt-127" value="Course_ID&lt;sub&gt;FK&lt;/sub&gt;" style="shape=partialRectangle;html=1;whiteSpace=wrap;connectable=0;strokeColor=inherit;overflow=hidden;fillColor=none;top=0;left=0;bottom=0;right=0;pointerEvents=1;" parent="TenIfx1kViAih2YROzDt-120" vertex="1">
          <mxGeometry x="400" width="80" height="40" as="geometry">
            <mxRectangle width="80" height="40" as="alternateBounds" />
          </mxGeometry>
        </mxCell>
        <mxCell id="TenIfx1kViAih2YROzDt-128" value="Exam_Student_Questins_Answers" style="shape=table;startSize=30;container=1;collapsible=0;childLayout=tableLayout;" parent="1" vertex="1">
          <mxGeometry x="-230" y="880" width="420" height="70" as="geometry" />
        </mxCell>
        <mxCell id="TenIfx1kViAih2YROzDt-129" value="" style="shape=tableRow;horizontal=0;startSize=0;swimlaneHead=0;swimlaneBody=0;strokeColor=inherit;top=0;left=0;bottom=0;right=0;collapsible=0;dropTarget=0;fillColor=none;points=[[0,0.5],[1,0.5]];portConstraint=eastwest;" parent="TenIfx1kViAih2YROzDt-128" vertex="1">
          <mxGeometry y="30" width="420" height="40" as="geometry" />
        </mxCell>
        <mxCell id="TenIfx1kViAih2YROzDt-130" value="&lt;u&gt;Exam_ID&lt;/u&gt;" style="shape=partialRectangle;html=1;whiteSpace=wrap;connectable=0;strokeColor=inherit;overflow=hidden;fillColor=none;top=0;left=0;bottom=0;right=0;pointerEvents=1;" parent="TenIfx1kViAih2YROzDt-129" vertex="1">
          <mxGeometry width="60" height="40" as="geometry">
            <mxRectangle width="60" height="40" as="alternateBounds" />
          </mxGeometry>
        </mxCell>
        <mxCell id="TenIfx1kViAih2YROzDt-131" value="&lt;u&gt;Student_ID&lt;/u&gt;" style="shape=partialRectangle;html=1;whiteSpace=wrap;connectable=0;strokeColor=inherit;overflow=hidden;fillColor=none;top=0;left=0;bottom=0;right=0;pointerEvents=1;" parent="TenIfx1kViAih2YROzDt-129" vertex="1">
          <mxGeometry x="60" width="80" height="40" as="geometry">
            <mxRectangle width="80" height="40" as="alternateBounds" />
          </mxGeometry>
        </mxCell>
        <mxCell id="TenIfx1kViAih2YROzDt-132" value="&lt;u&gt;Question_ID&lt;/u&gt;" style="shape=partialRectangle;html=1;whiteSpace=wrap;connectable=0;strokeColor=inherit;overflow=hidden;fillColor=none;top=0;left=0;bottom=0;right=0;pointerEvents=1;" parent="TenIfx1kViAih2YROzDt-129" vertex="1">
          <mxGeometry x="140" width="80" height="40" as="geometry">
            <mxRectangle width="80" height="40" as="alternateBounds" />
          </mxGeometry>
        </mxCell>
        <mxCell id="TenIfx1kViAih2YROzDt-133" value="S_Degree" style="shape=partialRectangle;html=1;whiteSpace=wrap;connectable=0;strokeColor=inherit;overflow=hidden;fillColor=none;top=0;left=0;bottom=0;right=0;pointerEvents=1;" parent="TenIfx1kViAih2YROzDt-129" vertex="1">
          <mxGeometry x="220" width="70" height="40" as="geometry">
            <mxRectangle width="70" height="40" as="alternateBounds" />
          </mxGeometry>
        </mxCell>
        <mxCell id="TenIfx1kViAih2YROzDt-134" value="S_Answer" style="shape=partialRectangle;html=1;whiteSpace=wrap;connectable=0;strokeColor=inherit;overflow=hidden;fillColor=none;top=0;left=0;bottom=0;right=0;pointerEvents=1;" parent="TenIfx1kViAih2YROzDt-129" vertex="1">
          <mxGeometry x="290" width="60" height="40" as="geometry">
            <mxRectangle width="60" height="40" as="alternateBounds" />
          </mxGeometry>
        </mxCell>
        <mxCell id="TenIfx1kViAih2YROzDt-135" value="IS_Correct" style="shape=partialRectangle;html=1;whiteSpace=wrap;connectable=0;strokeColor=inherit;overflow=hidden;fillColor=none;top=0;left=0;bottom=0;right=0;pointerEvents=1;" parent="TenIfx1kViAih2YROzDt-129" vertex="1">
          <mxGeometry x="350" width="70" height="40" as="geometry">
            <mxRectangle width="70" height="40" as="alternateBounds" />
          </mxGeometry>
        </mxCell>
        <mxCell id="dDokPPh2LCKlY3VOZpVm-1" value="Intake_Branch_Track" style="shape=table;startSize=30;container=1;collapsible=0;childLayout=tableLayout;" parent="1" vertex="1">
          <mxGeometry x="-820" y="210" width="190" height="70" as="geometry" />
        </mxCell>
        <mxCell id="dDokPPh2LCKlY3VOZpVm-2" value="" style="shape=tableRow;horizontal=0;startSize=0;swimlaneHead=0;swimlaneBody=0;strokeColor=inherit;top=0;left=0;bottom=0;right=0;collapsible=0;dropTarget=0;fillColor=none;points=[[0,0.5],[1,0.5]];portConstraint=eastwest;" parent="dDokPPh2LCKlY3VOZpVm-1" vertex="1">
          <mxGeometry y="30" width="190" height="40" as="geometry" />
        </mxCell>
        <mxCell id="dDokPPh2LCKlY3VOZpVm-3" value="&lt;font style=&quot;font-size: 10px;&quot;&gt;&lt;u&gt;Intake_ID&lt;sub style=&quot;&quot;&gt;FK&lt;/sub&gt;&lt;/u&gt;&lt;/font&gt;" style="shape=partialRectangle;html=1;whiteSpace=wrap;connectable=0;strokeColor=inherit;overflow=hidden;fillColor=none;top=0;left=0;bottom=0;right=0;pointerEvents=1;" parent="dDokPPh2LCKlY3VOZpVm-2" vertex="1">
          <mxGeometry width="63" height="40" as="geometry">
            <mxRectangle width="63" height="40" as="alternateBounds" />
          </mxGeometry>
        </mxCell>
        <mxCell id="dDokPPh2LCKlY3VOZpVm-4" value="&lt;u&gt;&lt;font style=&quot;font-size: 10px;&quot;&gt;Branch_ID&lt;sub style=&quot;&quot;&gt;FK&lt;/sub&gt;&lt;/font&gt;&lt;/u&gt;" style="shape=partialRectangle;html=1;whiteSpace=wrap;connectable=0;strokeColor=inherit;overflow=hidden;fillColor=none;top=0;left=0;bottom=0;right=0;pointerEvents=1;" parent="dDokPPh2LCKlY3VOZpVm-2" vertex="1">
          <mxGeometry x="63" width="67" height="40" as="geometry">
            <mxRectangle width="67" height="40" as="alternateBounds" />
          </mxGeometry>
        </mxCell>
        <mxCell id="dDokPPh2LCKlY3VOZpVm-5" value="&lt;u&gt;&lt;font style=&quot;font-size: 11px;&quot;&gt;Track_ID&lt;sub style=&quot;&quot;&gt;FK&lt;/sub&gt;&lt;/font&gt;&lt;/u&gt;" style="shape=partialRectangle;html=1;whiteSpace=wrap;connectable=0;strokeColor=inherit;overflow=hidden;fillColor=none;top=0;left=0;bottom=0;right=0;pointerEvents=1;" parent="dDokPPh2LCKlY3VOZpVm-2" vertex="1">
          <mxGeometry x="130" width="60" height="40" as="geometry">
            <mxRectangle width="60" height="40" as="alternateBounds" />
          </mxGeometry>
        </mxCell>
        <mxCell id="dDokPPh2LCKlY3VOZpVm-10" value="Ins_Courses" style="shape=table;startSize=30;container=1;collapsible=0;childLayout=tableLayout;" parent="1" vertex="1">
          <mxGeometry x="-210" y="570" width="150" height="80" as="geometry" />
        </mxCell>
        <mxCell id="dDokPPh2LCKlY3VOZpVm-11" value="" style="shape=tableRow;horizontal=0;startSize=0;swimlaneHead=0;swimlaneBody=0;strokeColor=inherit;top=0;left=0;bottom=0;right=0;collapsible=0;dropTarget=0;fillColor=none;points=[[0,0.5],[1,0.5]];portConstraint=eastwest;" parent="dDokPPh2LCKlY3VOZpVm-10" vertex="1">
          <mxGeometry y="30" width="150" height="50" as="geometry" />
        </mxCell>
        <mxCell id="dDokPPh2LCKlY3VOZpVm-12" value="&lt;u&gt;Instructor_ID&lt;sub&gt;FK&lt;/sub&gt;&lt;/u&gt;" style="shape=partialRectangle;html=1;whiteSpace=wrap;connectable=0;strokeColor=inherit;overflow=hidden;fillColor=none;top=0;left=0;bottom=0;right=0;pointerEvents=1;" parent="dDokPPh2LCKlY3VOZpVm-11" vertex="1">
          <mxGeometry width="70" height="50" as="geometry">
            <mxRectangle width="70" height="50" as="alternateBounds" />
          </mxGeometry>
        </mxCell>
        <mxCell id="dDokPPh2LCKlY3VOZpVm-13" value="&lt;u&gt;Course_ID&lt;sub&gt;FK&lt;/sub&gt;&lt;/u&gt;" style="shape=partialRectangle;html=1;whiteSpace=wrap;connectable=0;strokeColor=inherit;overflow=hidden;fillColor=none;top=0;left=0;bottom=0;right=0;pointerEvents=1;" parent="dDokPPh2LCKlY3VOZpVm-11" vertex="1">
          <mxGeometry x="70" width="80" height="50" as="geometry">
            <mxRectangle width="80" height="50" as="alternateBounds" />
          </mxGeometry>
        </mxCell>
        <mxCell id="xYbeChOQ_kI66acrMNzB-12" value="" style="endArrow=none;html=1;rounded=0;" parent="1" edge="1">
          <mxGeometry width="50" height="50" relative="1" as="geometry">
            <mxPoint x="-870" y="290" as="sourcePoint" />
            <mxPoint x="-710" y="280" as="targetPoint" />
            <Array as="points">
              <mxPoint x="-710" y="290" />
            </Array>
          </mxGeometry>
        </mxCell>
        <mxCell id="xYbeChOQ_kI66acrMNzB-13" value="" style="endArrow=none;html=1;rounded=0;" parent="1" edge="1">
          <mxGeometry width="50" height="50" relative="1" as="geometry">
            <mxPoint x="-870" y="290" as="sourcePoint" />
            <mxPoint x="-870" y="-50" as="targetPoint" />
            <Array as="points">
              <mxPoint x="-870" y="230" />
            </Array>
          </mxGeometry>
        </mxCell>
        <mxCell id="xYbeChOQ_kI66acrMNzB-14" value="" style="endArrow=none;html=1;rounded=0;entryX=0;entryY=0.5;entryDx=0;entryDy=0;" parent="1" target="TenIfx1kViAih2YROzDt-16" edge="1">
          <mxGeometry width="50" height="50" relative="1" as="geometry">
            <mxPoint x="-870" y="-50" as="sourcePoint" />
            <mxPoint x="-820" y="-100" as="targetPoint" />
            <Array as="points">
              <mxPoint x="-870" y="-110" />
            </Array>
          </mxGeometry>
        </mxCell>
        <mxCell id="xYbeChOQ_kI66acrMNzB-22" value="" style="endArrow=none;html=1;rounded=0;" parent="1" edge="1">
          <mxGeometry width="50" height="50" relative="1" as="geometry">
            <mxPoint x="-640" y="430" as="sourcePoint" />
            <mxPoint x="-640" y="400" as="targetPoint" />
          </mxGeometry>
        </mxCell>
        <mxCell id="xYbeChOQ_kI66acrMNzB-23" value="" style="endArrow=none;html=1;rounded=0;" parent="1" edge="1">
          <mxGeometry width="50" height="50" relative="1" as="geometry">
            <mxPoint x="-890" y="430" as="sourcePoint" />
            <mxPoint x="-640" y="430" as="targetPoint" />
          </mxGeometry>
        </mxCell>
        <mxCell id="xYbeChOQ_kI66acrMNzB-24" value="" style="endArrow=none;html=1;rounded=0;exitX=0;exitY=0.25;exitDx=0;exitDy=0;exitPerimeter=0;" parent="1" source="TenIfx1kViAih2YROzDt-61" edge="1">
          <mxGeometry width="50" height="50" relative="1" as="geometry">
            <mxPoint x="-940" y="530" as="sourcePoint" />
            <mxPoint x="-890" y="480" as="targetPoint" />
          </mxGeometry>
        </mxCell>
        <mxCell id="xYbeChOQ_kI66acrMNzB-25" value="" style="endArrow=none;html=1;rounded=0;" parent="1" edge="1">
          <mxGeometry width="50" height="50" relative="1" as="geometry">
            <mxPoint x="-890" y="480" as="sourcePoint" />
            <mxPoint x="-890" y="430" as="targetPoint" />
          </mxGeometry>
        </mxCell>
        <mxCell id="xYbeChOQ_kI66acrMNzB-27" value="" style="endArrow=none;html=1;rounded=0;" parent="1" edge="1">
          <mxGeometry width="50" height="50" relative="1" as="geometry">
            <mxPoint x="-620" y="530" as="sourcePoint" />
            <mxPoint x="-620" y="510" as="targetPoint" />
          </mxGeometry>
        </mxCell>
        <mxCell id="xYbeChOQ_kI66acrMNzB-28" value="" style="endArrow=none;html=1;rounded=0;" parent="1" edge="1">
          <mxGeometry width="50" height="50" relative="1" as="geometry">
            <mxPoint x="-920" y="530" as="sourcePoint" />
            <mxPoint x="-620" y="530" as="targetPoint" />
          </mxGeometry>
        </mxCell>
        <mxCell id="xYbeChOQ_kI66acrMNzB-29" value="" style="endArrow=none;html=1;rounded=0;" parent="1" edge="1">
          <mxGeometry width="50" height="50" relative="1" as="geometry">
            <mxPoint x="-920" y="530" as="sourcePoint" />
            <mxPoint x="-920" y="390" as="targetPoint" />
          </mxGeometry>
        </mxCell>
        <mxCell id="xYbeChOQ_kI66acrMNzB-30" value="" style="endArrow=none;html=1;rounded=0;" parent="1" edge="1">
          <mxGeometry width="50" height="50" relative="1" as="geometry">
            <mxPoint x="-920" y="390" as="sourcePoint" />
            <mxPoint x="-820" y="389" as="targetPoint" />
          </mxGeometry>
        </mxCell>
        <mxCell id="xYbeChOQ_kI66acrMNzB-31" value="" style="endArrow=none;html=1;rounded=0;" parent="1" edge="1">
          <mxGeometry width="50" height="50" relative="1" as="geometry">
            <mxPoint x="-560" y="540" as="sourcePoint" />
            <mxPoint x="-560" y="510" as="targetPoint" />
          </mxGeometry>
        </mxCell>
        <mxCell id="xYbeChOQ_kI66acrMNzB-32" value="" style="endArrow=none;html=1;rounded=0;" parent="1" edge="1">
          <mxGeometry width="50" height="50" relative="1" as="geometry">
            <mxPoint x="-860" y="540" as="sourcePoint" />
            <mxPoint x="-560" y="540" as="targetPoint" />
          </mxGeometry>
        </mxCell>
        <mxCell id="xYbeChOQ_kI66acrMNzB-34" value="" style="endArrow=none;html=1;rounded=0;" parent="1" edge="1">
          <mxGeometry width="50" height="50" relative="1" as="geometry">
            <mxPoint x="-860" y="610" as="sourcePoint" />
            <mxPoint x="-860" y="540" as="targetPoint" />
          </mxGeometry>
        </mxCell>
        <mxCell id="xYbeChOQ_kI66acrMNzB-35" value="" style="endArrow=none;html=1;rounded=0;" parent="1" edge="1">
          <mxGeometry width="50" height="50" relative="1" as="geometry">
            <mxPoint x="-860" y="610" as="sourcePoint" />
            <mxPoint x="-820" y="610" as="targetPoint" />
          </mxGeometry>
        </mxCell>
        <mxCell id="xYbeChOQ_kI66acrMNzB-39" value="" style="endArrow=none;html=1;rounded=0;" parent="1" edge="1">
          <mxGeometry width="50" height="50" relative="1" as="geometry">
            <mxPoint x="-90" y="680" as="sourcePoint" />
            <mxPoint x="-90" y="650" as="targetPoint" />
          </mxGeometry>
        </mxCell>
        <mxCell id="xYbeChOQ_kI66acrMNzB-40" value="" style="endArrow=none;html=1;rounded=0;" parent="1" edge="1">
          <mxGeometry width="50" height="50" relative="1" as="geometry">
            <mxPoint x="-840" y="680" as="sourcePoint" />
            <mxPoint x="-90" y="680" as="targetPoint" />
          </mxGeometry>
        </mxCell>
        <mxCell id="xYbeChOQ_kI66acrMNzB-41" value="" style="endArrow=none;html=1;rounded=0;" parent="1" edge="1">
          <mxGeometry width="50" height="50" relative="1" as="geometry">
            <mxPoint x="-840" y="680" as="sourcePoint" />
            <mxPoint x="-840" y="640" as="targetPoint" />
          </mxGeometry>
        </mxCell>
        <mxCell id="xYbeChOQ_kI66acrMNzB-42" value="" style="endArrow=none;html=1;rounded=0;" parent="1" edge="1">
          <mxGeometry width="50" height="50" relative="1" as="geometry">
            <mxPoint x="-840" y="640" as="sourcePoint" />
            <mxPoint x="-820" y="640" as="targetPoint" />
          </mxGeometry>
        </mxCell>
        <mxCell id="xYbeChOQ_kI66acrMNzB-47" value="" style="endArrow=none;html=1;rounded=0;exitX=0.001;exitY=0.27;exitDx=0;exitDy=0;exitPerimeter=0;" parent="1" source="TenIfx1kViAih2YROzDt-41" edge="1">
          <mxGeometry width="50" height="50" relative="1" as="geometry">
            <mxPoint x="-840" y="780" as="sourcePoint" />
            <mxPoint x="-160" y="650" as="targetPoint" />
            <Array as="points">
              <mxPoint x="-840" y="760" />
              <mxPoint x="-840" y="700" />
              <mxPoint x="-160" y="700" />
            </Array>
          </mxGeometry>
        </mxCell>
        <mxCell id="xYbeChOQ_kI66acrMNzB-48" value="" style="endArrow=none;html=1;rounded=0;exitX=0;exitY=0.5;exitDx=0;exitDy=0;" parent="1" source="TenIfx1kViAih2YROzDt-61" edge="1">
          <mxGeometry width="50" height="50" relative="1" as="geometry">
            <mxPoint x="-950" y="500" as="sourcePoint" />
            <mxPoint x="-280" y="790" as="targetPoint" />
            <Array as="points">
              <mxPoint x="-950" y="490" />
              <mxPoint x="-950" y="820" />
              <mxPoint x="-280" y="820" />
            </Array>
          </mxGeometry>
        </mxCell>
        <mxCell id="xYbeChOQ_kI66acrMNzB-49" value="" style="endArrow=none;html=1;rounded=0;exitX=0.631;exitY=0.967;exitDx=0;exitDy=0;exitPerimeter=0;" parent="1" source="TenIfx1kViAih2YROzDt-103" edge="1">
          <mxGeometry width="50" height="50" relative="1" as="geometry">
            <mxPoint x="-80" y="1120" as="sourcePoint" />
            <mxPoint x="-820" y="770" as="targetPoint" />
            <Array as="points">
              <mxPoint x="-180" y="1100" />
              <mxPoint x="-860" y="1120" />
              <mxPoint x="-860" y="770" />
            </Array>
          </mxGeometry>
        </mxCell>
        <mxCell id="xYbeChOQ_kI66acrMNzB-50" value="" style="endArrow=none;html=1;rounded=0;" parent="1" edge="1">
          <mxGeometry width="50" height="50" relative="1" as="geometry">
            <mxPoint x="-390" y="951" as="sourcePoint" />
            <mxPoint x="-810" y="650" as="targetPoint" />
            <Array as="points">
              <mxPoint x="-390" y="960" />
              <mxPoint x="-890" y="960" />
              <mxPoint x="-890" y="670" />
              <mxPoint x="-810" y="670" />
            </Array>
          </mxGeometry>
        </mxCell>
        <mxCell id="xYbeChOQ_kI66acrMNzB-51" value="" style="endArrow=none;html=1;rounded=0;exitX=0.404;exitY=1.023;exitDx=0;exitDy=0;exitPerimeter=0;" parent="1" source="TenIfx1kViAih2YROzDt-129" edge="1">
          <mxGeometry width="50" height="50" relative="1" as="geometry">
            <mxPoint x="-40" y="980" as="sourcePoint" />
            <mxPoint x="-780" y="950" as="targetPoint" />
            <Array as="points">
              <mxPoint x="-60" y="980" />
              <mxPoint x="-220" y="980" />
              <mxPoint x="-780" y="980" />
            </Array>
          </mxGeometry>
        </mxCell>
        <mxCell id="xYbeChOQ_kI66acrMNzB-52" value="" style="endArrow=none;html=1;rounded=0;" parent="1" edge="1">
          <mxGeometry width="50" height="50" relative="1" as="geometry">
            <mxPoint x="-60" y="1090" as="sourcePoint" />
            <mxPoint x="-790" y="650" as="targetPoint" />
            <Array as="points">
              <mxPoint x="-60" y="1110" />
              <mxPoint x="-900" y="1110" />
              <mxPoint x="-900" y="690" />
              <mxPoint x="-790" y="690" />
            </Array>
          </mxGeometry>
        </mxCell>
        <mxCell id="xYbeChOQ_kI66acrMNzB-53" value="" style="endArrow=none;html=1;rounded=0;" parent="1" edge="1">
          <mxGeometry width="50" height="50" relative="1" as="geometry">
            <mxPoint x="400" y="950" as="sourcePoint" />
            <mxPoint x="-798" y="950" as="targetPoint" />
            <Array as="points">
              <mxPoint x="400" y="1000" />
              <mxPoint x="-798" y="1000" />
            </Array>
          </mxGeometry>
        </mxCell>
        <mxCell id="xYbeChOQ_kI66acrMNzB-54" value="" style="endArrow=none;html=1;rounded=0;" parent="1" edge="1">
          <mxGeometry width="50" height="50" relative="1" as="geometry">
            <mxPoint x="300" y="950" as="sourcePoint" />
            <mxPoint x="-790" y="1090" as="targetPoint" />
            <Array as="points">
              <mxPoint x="300" y="1130" />
              <mxPoint x="-790" y="1130" />
            </Array>
          </mxGeometry>
        </mxCell>
        <mxCell id="xYbeChOQ_kI66acrMNzB-55" value="" style="endArrow=none;html=1;rounded=0;" parent="1" edge="1">
          <mxGeometry width="50" height="50" relative="1" as="geometry">
            <mxPoint x="-820" y="1062" as="sourcePoint" />
            <mxPoint x="-200" y="950" as="targetPoint" />
            <Array as="points">
              <mxPoint x="-910" y="1062" />
              <mxPoint x="-910" y="990" />
              <mxPoint x="-200" y="990" />
            </Array>
          </mxGeometry>
        </mxCell>
        <mxCell id="xYbeChOQ_kI66acrMNzB-56" value="" style="endArrow=none;html=1;rounded=0;exitX=0.037;exitY=0.993;exitDx=0;exitDy=0;exitPerimeter=0;" parent="1" source="TenIfx1kViAih2YROzDt-29" edge="1">
          <mxGeometry width="50" height="50" relative="1" as="geometry">
            <mxPoint x="-780" y="178" as="sourcePoint" />
            <mxPoint x="-130" y="950" as="targetPoint" />
            <Array as="points">
              <mxPoint x="-789" y="200" />
              <mxPoint x="200" y="200" />
              <mxPoint x="200" y="970" />
              <mxPoint x="-130" y="970" />
            </Array>
          </mxGeometry>
        </mxCell>
        <mxCell id="xYbeChOQ_kI66acrMNzB-57" value="" style="endArrow=none;html=1;rounded=0;exitX=-0.012;exitY=0.262;exitDx=0;exitDy=0;exitPerimeter=0;" parent="1" source="TenIfx1kViAih2YROzDt-20" edge="1">
          <mxGeometry width="50" height="50" relative="1" as="geometry">
            <mxPoint x="-840" y="370" as="sourcePoint" />
            <mxPoint x="-660" y="280" as="targetPoint" />
            <Array as="points">
              <mxPoint x="-840" y="370" />
              <mxPoint x="-840" y="320" />
              <mxPoint x="-660" y="320" />
            </Array>
          </mxGeometry>
        </mxCell>
        <mxCell id="fgSBksqEQDsR307yNeFl-4" style="edgeStyle=orthogonalEdgeStyle;rounded=0;orthogonalLoop=1;jettySize=auto;html=1;exitX=0;exitY=0.5;exitDx=0;exitDy=0;entryX=0.803;entryY=1.064;entryDx=0;entryDy=0;entryPerimeter=0;endArrow=none;endFill=0;" parent="1" source="TenIfx1kViAih2YROzDt-20" target="TenIfx1kViAih2YROzDt-29" edge="1">
          <mxGeometry relative="1" as="geometry">
            <Array as="points">
              <mxPoint x="-910" y="380" />
              <mxPoint x="-910" y="130" />
              <mxPoint x="-145" y="130" />
            </Array>
          </mxGeometry>
        </mxCell>
        <mxCell id="fgSBksqEQDsR307yNeFl-5" style="edgeStyle=orthogonalEdgeStyle;rounded=0;orthogonalLoop=1;jettySize=auto;html=1;exitX=0;exitY=0.5;exitDx=0;exitDy=0;entryX=0;entryY=0.5;entryDx=0;entryDy=0;endArrow=none;endFill=0;" parent="1" source="dDokPPh2LCKlY3VOZpVm-2" target="TenIfx1kViAih2YROzDt-2" edge="1">
          <mxGeometry relative="1" as="geometry">
            <Array as="points">
              <mxPoint x="-850" y="260" />
              <mxPoint x="-850" y="-9" />
            </Array>
          </mxGeometry>
        </mxCell>
        <mxCell id="fgSBksqEQDsR307yNeFl-6" style="edgeStyle=orthogonalEdgeStyle;rounded=0;orthogonalLoop=1;jettySize=auto;html=1;exitX=0;exitY=0.5;exitDx=0;exitDy=0;entryX=0.878;entryY=-0.043;entryDx=0;entryDy=0;entryPerimeter=0;endArrow=none;endFill=0;" parent="1" source="TenIfx1kViAih2YROzDt-2" target="TenIfx1kViAih2YROzDt-29" edge="1">
          <mxGeometry relative="1" as="geometry">
            <Array as="points">
              <mxPoint x="-850" y="-9" />
              <mxPoint x="-850" y="-70" />
              <mxPoint x="-82" y="-70" />
            </Array>
          </mxGeometry>
        </mxCell>
        <mxCell id="fgSBksqEQDsR307yNeFl-8" style="edgeStyle=orthogonalEdgeStyle;rounded=0;orthogonalLoop=1;jettySize=auto;html=1;exitX=0;exitY=0.5;exitDx=0;exitDy=0;entryX=1;entryY=0.5;entryDx=0;entryDy=0;endArrow=none;endFill=0;" parent="1" source="TenIfx1kViAih2YROzDt-16" target="TenIfx1kViAih2YROzDt-29" edge="1">
          <mxGeometry relative="1" as="geometry">
            <Array as="points">
              <mxPoint x="-870" y="-110" />
              <mxPoint x="-870" y="-200" />
              <mxPoint x="40" y="-200" />
              <mxPoint x="40" y="80" />
            </Array>
          </mxGeometry>
        </mxCell>
        <mxCell id="CGkcJZrvuBVAxDMQJCgX-4" style="edgeStyle=orthogonalEdgeStyle;rounded=0;orthogonalLoop=1;jettySize=auto;html=1;" edge="1" parent="1" source="TenIfx1kViAih2YROzDt-19">
          <mxGeometry relative="1" as="geometry">
            <mxPoint x="230" y="1090" as="targetPoint" />
            <Array as="points">
              <mxPoint x="-1040" y="365" />
              <mxPoint x="-1040" y="725" />
              <mxPoint x="-840" y="725" />
              <mxPoint x="-840" y="1110" />
              <mxPoint x="230" y="1110" />
            </Array>
          </mxGeometry>
        </mxCell>
        <mxCell id="CGkcJZrvuBVAxDMQJCgX-5" style="edgeStyle=orthogonalEdgeStyle;rounded=0;orthogonalLoop=1;jettySize=auto;html=1;" edge="1" parent="1" source="TenIfx1kViAih2YROzDt-15" target="TenIfx1kViAih2YROzDt-103">
          <mxGeometry relative="1" as="geometry">
            <Array as="points">
              <mxPoint x="-990" y="-125" />
              <mxPoint x="-990" y="1150" />
              <mxPoint x="121" y="1150" />
            </Array>
          </mxGeometry>
        </mxCell>
        <mxCell id="CGkcJZrvuBVAxDMQJCgX-6" style="edgeStyle=orthogonalEdgeStyle;rounded=0;orthogonalLoop=1;jettySize=auto;html=1;" edge="1" parent="1" source="TenIfx1kViAih2YROzDt-1" target="TenIfx1kViAih2YROzDt-103">
          <mxGeometry relative="1" as="geometry">
            <mxPoint x="39" y="1093" as="targetPoint" />
            <Array as="points">
              <mxPoint x="-1060" y="-24" />
              <mxPoint x="-1060" y="1170" />
              <mxPoint x="39" y="1170" />
            </Array>
          </mxGeometry>
        </mxCell>
      </root>
    </mxGraphModel>
  </diagram>
</mxfile>
